<svg width="90" height="157" viewBox="0 0 90 157" fill="none" xmlns="http://www.w3.org/2000/svg">
<path d="M52.0627 156.868H33.7568V137.009C20.8811 135.785 9.6288 132.447 0 126.996V103.132C12.5398 111.365 26.5912 115.481 42.154 115.481C49.3196 115.481 54.6379 114.647 58.1087 112.978C61.6915 111.198 63.4829 108.305 63.4829 104.3C63.4829 101.408 62.3073 98.9045 59.9561 96.7906C57.7168 94.6768 54.7498 93.008 51.055 91.7842C47.3603 90.4492 43.2736 89.1698 38.7951 87.946C34.3166 86.6109 29.8381 85.109 25.3596 83.4402C20.8811 81.6601 16.7944 79.602 13.0996 77.2656C9.40488 74.8181 6.38188 71.4804 4.03066 67.2528C1.7914 63.0252 0.671777 58.13 0.671777 52.5673C0.671777 43.1108 3.69477 35.6568 9.74076 30.2054C15.7868 24.6427 23.7921 21.1938 33.7568 19.8588V0H52.0627V20.0257C63.9308 21.1382 73.8395 23.9195 81.7888 28.3697V51.7329C71.8242 44.6127 59.7322 41.1638 45.5129 41.3863C32.7491 41.6089 26.3672 45.2246 26.3672 52.2336C26.3672 54.9037 27.4869 57.24 29.7261 59.2425C32.0774 61.1339 35.1003 62.6914 38.7951 63.9152C42.6019 65.139 46.7445 66.3628 51.223 67.5866C55.7015 68.8104 60.124 70.3123 64.4906 72.0923C68.9691 73.8724 73.0557 75.9862 76.7505 78.4338C80.5573 80.7701 83.5802 84.0521 85.8195 88.2797C88.1707 92.5074 89.3463 97.4582 89.3463 103.132C89.3463 114.035 85.9315 122.212 79.1017 127.664C72.384 133.115 63.371 136.286 52.0627 137.176V156.868Z" fill="black"/>
</svg>
